<?xml version="1.0" encoding="utf-8"?>
<!-- Generator: Adobe Illustrator 19.0.0, SVG Export Plug-In . SVG Version: 6.00 Build 0)  -->
<svg version="1.1" id="Layer_1" xmlns="http://www.w3.org/2000/svg" xmlns:xlink="http://www.w3.org/1999/xlink" x="0px" y="0px"
	 viewBox="0 0 1407.9 492" style="enable-background:new 0 0 1407.9 492;" xml:space="preserve">
<style type="text/css">
	.st0{fill:#F44336;}
	.st1{fill:#FF5252;}
	.st3{fill:rgba(30,30,30,1);}
</style>
<path id="XMLID_66_" class="st3" d="M58.1,324.4c0,13.2,0,27.2,0,41.1c0,14,0,28,0,42.3c-13.7,0-27,0-40.7,0c0-79.9,0-159.9,0-240.3
	c12.7,0,25.4,0,38.5,0c0,7.2,0,14.3,0,21c6.7-4.9,12.9-10.8,20.2-14.4c24.9-12.5,50.7-12.3,76-1.7c32.8,13.7,49,39.8,51.8,74.8
	c1.8,22.8-2.4,44-15.7,62.9c-15.6,22.2-37.4,33.3-64.2,35.6c-14.7,1.2-29.1,0.4-42.4-6.2C73.3,335.4,65.9,329.5,58.1,324.4z
	 M162.5,255.3c-0.3-3.9-0.3-7.8-1-11.7c-3.9-24-22.1-42.3-48.2-43.4c-15.3-0.7-29.1,3.3-40,14.2C58.1,229.7,55,248.6,59,269
	c3.9,19.8,15.4,33.7,34.8,39.3c20.2,5.8,39.1,2.5,54.3-13.2C158.7,284.2,162.5,270.4,162.5,255.3z"/>
<path id="XMLID_63_" class="st3" d="M329.7,240.6c3.3-19.7-9-36.6-29-39.8c-24.6-3.9-47.4,1.2-68,15.8c-5.3-9.8-10.5-19.5-16-29.5
	c7-6,15.1-10,23.6-13.1c26.4-9.7,53.5-11.8,81-5.5c27.7,6.4,44.8,25.2,49,53.3c1.1,7.2,1.7,14.6,1.7,21.9
	c0.2,31.2,0.1,62.3,0.1,93.5c0,1.9,0,3.9,0,6.2c-13.1,0-25.9,0-39.1,0c0-6.4,0-12.7,0-19.9c-3.5,3.4-6,6.5-9.1,8.9
	c-15.3,12.3-33.3,14.4-52,13.7c-15.8-0.6-30.3-4.9-42.9-15c-26.1-20.9-24.4-67.7,12-83.2c14.2-6,29.2-7.1,44.4-7.2
	c13-0.1,26.1,0,39.1,0C326.3,240.6,328.1,240.6,329.7,240.6z M331.1,268.2c-6.8,0-12.2-0.1-17.5,0c-13.3,0.3-26.7,0.1-40,1.2
	c-13.2,1.1-21,9.5-21.7,21c-0.6,11,7,20.6,19.1,23.8c8.1,2.1,16.4,2.7,24.7,1.1c14.4-2.7,27.2-8.7,32.8-23
	C331.2,285.3,330.3,276.8,331.1,268.2z"/>
<path id="XMLID_60_" class="st3" d="M656.9,343.4c-13.4,0-26,0-39.1,0c0-6.5,0-12.8,0-19.9c-3.4,3.3-6,6.3-9.1,8.8c-15.3,12.2-33.3,14.4-52,13.7
	c-15.8-0.6-30.3-4.9-42.9-15c-26.1-20.9-24.4-67.8,12.1-83.2c10.9-4.6,22.4-6.6,34.1-6.9c16.8-0.3,33.6-0.3,50.4-0.4
	c1.4,0,2.9-0.2,4.2-0.3c3-19.7-9.1-36.3-29.1-39.5c-24.5-3.9-47,1.2-67.9,15.8c-5.3-9.7-10.6-19.5-16.4-30.2
	c6.2-3.5,12.2-7.5,18.6-10.2c30.2-12.5,61.4-15.4,92.9-5.7c24.6,7.6,38.2,25.3,42.3,50.3c1.3,8,1.7,16.2,1.8,24.3
	c0.2,30.7,0.1,61.3,0.1,92C656.9,339.1,656.9,341,656.9,343.4z M615.2,268.2c-15.6,0-30.5-0.2-45.5,0.1c-5.8,0.1-11.6,1.3-17.2,2.7
	c-9.6,2.4-14.8,9-15.7,18.8c-0.9,9,4,17.3,12.7,21.8c16.8,8.6,43.2,5,56.4-8.5c4.1-4.2,7.5-10,9-15.7
	C616.4,281.6,615.2,275.1,615.2,268.2z"/>
<path id="XMLID_57_" class="st3" d="M976,343.4c-13.3,0-25.9,0-39,0c0-6.5,0-12.8,0-20c-3.3,3.2-5.8,6-8.7,8.4c-9.5,8.1-20.8,11.9-32.9,13.4
	c-14.7,1.8-29.3,1.4-43.4-3.7c-17.8-6.5-30.9-17.7-35.4-37c-5.7-24.3,5.4-46.8,28.2-56.8c14.3-6.3,29.5-7.2,44.9-7.3
	c12.9-0.1,25.8,0,38.7,0c1.8,0,3.5,0,5.2,0c3-17-6.3-36.1-29.3-39.8c-21.1-3.5-46,0.4-67.7,15.9c-5.3-9.7-10.5-19.4-16-29.5
	c6.9-5.9,15-9.9,23.5-13c26.6-9.8,53.8-11.9,81.4-5.5c27.2,6.3,44.6,25.5,48.6,53.1c1.1,7.4,1.7,14.9,1.7,22.3c0.2,31,0.1,62,0.1,93
	C976,339,976,340.9,976,343.4z M935.1,268.2c-17,0-32.7-0.2-48.3,0.1c-5.1,0.1-10.3,1.3-15.2,2.6c-9.6,2.5-14.7,9.1-15.6,18.9
	c-0.8,9.1,4,17.4,12.7,21.7c10,5,20.7,5.6,31.4,3.6c14.2-2.6,26.8-8.7,32.3-22.8C935.1,285.3,934.2,276.8,935.1,268.2z"/>
<path id="XMLID_56_" class="st3" d="M1230.6,327.5c5.4-10.7,10.6-21,15.4-30.5c10.4,4.1,20.3,8.7,30.5,11.8c16.9,5.1,34.2,6.4,51.6,2.6
	c6.3-1.4,12.1-4,15.4-10.1c4.3-8.2,1.6-17.1-7.2-20c-9.6-3.2-19.8-4.9-29.7-7.2c-13.1-3-26.6-4.9-39.3-9.1
	c-14.7-4.9-26.1-14.3-29.8-30.7c-5.4-23.4,3.2-43.6,24-56.2c11.5-6.9,24.2-10.3,37.3-11.5c23.6-2.1,46.7,0.4,69,8.7
	c3.9,1.5,7.7,3.5,12.2,5.5c-5.3,10.7-10.5,21-15.8,31.6c-18.3-10.6-37.9-14.1-58.4-12.8c-8,0.5-15.8,1.9-22.5,6.8
	c-5.3,3.9-7.6,9.2-6.5,15.7c1,5.7,4.6,9.5,9.9,10.9c13.6,3.5,27.4,6.6,41.1,9.6c12.7,2.8,25.4,5,37,11.4
	c27.9,15.4,25.9,55.8,5.4,73.2c-12.2,10.4-26.4,15.8-41.9,18c-29.1,4.1-57.4,0.7-84.6-11C1239.3,332.6,1235.2,330,1230.6,327.5z"/>
<path id="XMLID_55_" class="st3" d="M712.4,344.5c-13.8,0-27.2,0-40.9,0c0-81.6,0-163.1,0-245c13.5,0,27.1,0,40.9,0
	C712.4,181.1,712.4,262.5,712.4,344.5z"/>
<path id="XMLID_54_" class="st3" d="M751.8,99.3c13.7,0,27.1,0,40.9,0c0,81.7,0,163.2,0,245c-13.6,0-27,0-40.9,0
	C751.8,262.8,751.8,181.2,751.8,99.3z"/>
<path id="XMLID_53_" class="st3" d="M491.5,165.2c0,13.2,0,26,0,38.9c-10.5-0.8-20.6-0.7-30.5,3c-17.5,6.6-26.8,20-28.7,37.7
	c-1.6,14.5-1.1,29.3-1.2,43.9c-0.2,18.1,0,36.2,0,54.6c-13.6,0-27,0-40.8,0c0-58.5,0-117.1,0-175.9c12.9,0,25.5,0,38.7,0
	c0,7.9,0,15.8,0,25.2c8-10.6,17-17.8,28.1-22C467.9,166.5,479.3,165.2,491.5,165.2z"/>
<path id="XMLID_52_" class="st0" d="M990.9,344.2c8.3-10.9,15.9-20.8,23.5-30.7c14-18.3,28-36.6,42.2-54.8c2.3-2.9,2-4.8-0.1-7.5
	c-20.7-27.2-41.3-54.6-62.5-82.6c1.8-0.3,3.1-0.7,4.4-0.7c12.1,0,24.1-0.2,36.2,0.1c2.4,0.1,5.5,1.6,6.9,3.4
	c20.1,26.5,39.9,53.2,59.9,79.8c1.8,2.4,1.9,3.9,0.1,6.3c-21,27.6-41.9,55.3-62.7,83c-1.9,2.5-3.9,3.8-7.3,3.7
	C1018.3,344.1,1005.3,344.2,990.9,344.2z"/>
<path id="XMLID_51_" class="st3" d="M1221.5,344.4c-13.6,0-26.9,0-40.6,0c0-58.6,0-117,0-175.9c13.3,0,26.8,0,40.6,0
	C1221.5,226.9,1221.5,285.5,1221.5,344.4z"/>
<path id="XMLID_50_" class="st1" d="M1108.3,259.8c22.1,28.5,43.5,56.2,65.7,84.9c-2.7,0.2-4.2,0.4-5.7,0.4
	c-12.2,0-24.5-0.1-36.7,0.1c-3.5,0.1-5.8-1.1-7.8-3.9c-12-16.4-24.2-32.7-36.1-49.1c-0.8-1.2-1.4-3.7-0.7-4.6
	C1093.7,278.5,1100.8,269.6,1108.3,259.8z"/>
<path id="XMLID_49_" class="st1" d="M1108.3,249.2c-7.1-9.4-13.9-18.2-20.4-27.1c-0.7-0.9-0.2-3.5,0.7-4.7
	c11.6-15.7,23.3-31.3,35.1-46.9c1-1.3,2.8-2.6,4.3-2.6c13.8-0.2,27.6-0.1,42.5,1C1149.8,195.4,1129.3,221.9,1108.3,249.2z"/>
</svg>
